<svg xmlns="http://www.w3.org/2000/svg" width="800" height="600" viewBox="0 0 800 600"><rect width="100%" height="100%" fill="#ffffff"/><style>text{font-family:'HarmonyOS Sans SC',Arial,sans-serif}</style><text x="269.0" y="345.4" fill="#bca692" font-size="120.0" transform="rotate(0.0 269.0 345.4)">Rust</text><text x="71.0" y="408.2" fill="#c7804b" font-size="95.1" transform="rotate(0.0 71.0 408.2)">Performance</text><text x="325.0" y="252.6" fill="#1c4e17" font-size="82.6" transform="rotate(0.0 325.0 252.6)">Safety</text><text x="22.0" y="456.1" fill="#c7804b" font-size="70.1" transform="rotate(0.0 22.0 456.1)">Concurrency</text><text x="203.0" y="227.5" fill="#c7804b" font-size="57.6" transform="rotate(0.0 203.0 227.5)">Fast</text><text x="460.0" y="185.7" fill="#bb0119" font-size="51.4" transform="rotate(0.0 460.0 185.7)">Memory</text><text x="241.0" y="179.9" fill="#bb0119" font-size="45.2" transform="rotate(0.0 241.0 179.9)">Efficient</text><text x="502.0" y="449.1" fill="#bca692" font-size="38.9" transform="rotate(0.0 502.0 449.1)">Reliable</text><text x="86.0" y="315.4" fill="#bca692" font-size="32.7" transform="rotate(0.0 86.0 315.4)">Community</text><text x="192.0" y="276.6" fill="#1c4e17" font-size="26.5" transform="rotate(0.0 192.0 276.6)">Cargo</text><text x="533.0" y="318.8" fill="#bb0119" font-size="20.2" transform="rotate(0.0 533.0 318.8)">Crates</text><text x="353.0" y="273.0" fill="#c7804b" font-size="14.0" transform="rotate(0.0 353.0 273.0)">Macro</text></svg>