<?xml version="1.0" encoding="utf-8"?>
<svg version="1.1" xmlns="http://www.w3.org/2000/svg" viewBox="0 0 32 32">
  <path d="M 30.342 14.667 C 30.342 6.761 23.914 0.21 15.933 0.21 C 7.952 0.21 1.523 6.761 1.523 14.667 C 1.523 16.022 1.745 17.377 2.077 18.733 C 1.745 19.524 1.523 20.427 1.523 21.33 C 1.523 24.945 4.516 27.994 8.173 27.768 L 8.173 30.705 C 8.173 31.382 8.617 31.834 9.283 31.834 L 22.583 31.834 C 23.248 31.834 23.692 31.382 23.692 30.705 L 23.692 27.881 C 27.349 27.994 30.342 25.057 30.342 21.444 C 30.342 20.54 30.12 19.636 29.788 18.733 C 30.12 17.377 30.342 16.022 30.342 14.667 Z M 7.065 18.845 C 7.065 16.7 8.838 14.892 10.945 14.892 C 13.05 14.892 14.824 16.7 14.824 18.845 C 14.824 20.992 13.05 22.798 10.945 22.798 C 8.838 22.798 7.065 20.992 7.065 18.845 Z M 18.926 25.848 C 18.704 26.074 18.481 26.186 18.149 26.186 C 17.817 26.186 17.595 26.074 17.373 25.848 L 15.933 24.38 L 14.492 25.848 C 14.049 26.3 13.383 26.3 12.94 25.848 C 12.496 25.396 12.496 24.718 12.94 24.266 L 15.157 22.008 C 15.6 21.556 16.265 21.556 16.708 22.008 L 18.926 24.266 C 19.369 24.718 19.369 25.396 18.926 25.848 Z M 20.92 22.798 C 18.815 22.798 17.041 20.992 17.041 18.845 C 17.041 16.7 18.815 14.892 20.92 14.892 C 23.026 14.892 24.8 16.7 24.8 18.845 C 24.8 20.992 23.026 22.798 20.92 22.798 Z" style=""/>
</svg>